<?xml version="1.0" encoding="UTF-8"?> <svg xmlns="http://www.w3.org/2000/svg" width="230" viewBox="0 0 172.5 30" height="40" version="1.0"><defs><clipPath id="a"><path d="M161 6h8.477v16H161Zm0 0"></path></clipPath></defs><path d="M15.807 2.04s-3.684-.68-6.149-.68c-3.883 0-6.46 1.613-6.46 5.523 0 3.375 1.812 4.649 6.007 5.727 2.973.707 3.852 1.273 3.852 2.918 0 2.039-1.106 3.117-3.512 3.117-2.012 0-5.84-.512-5.84-.512l-.313 2.524s3.829.765 6.348.765c3.828 0 6.492-1.843 6.492-6.093 0-3.317-1.476-4.391-5.554-5.528-3.317-.906-4.336-1.328-4.336-3.144 0-1.672 1.218-2.52 3.597-2.52 1.645 0 5.614.453 5.614.453ZM22.35 21.11V10.114s1.473-.735 3.06-.735c2.124 0 2.437 1.301 2.437 4.45v7.28h3.058V13.77c0-1.387-.113-3.344-.226-3.625 0 0 1.672-.766 3.23-.766 2.07 0 2.41 1.387 2.41 4.223v7.508h3.06v-7.594c0-4.816-1.048-6.887-4.903-6.887-2.293 0-4.871 1.387-4.871 1.387-.793-.96-1.871-1.387-3.602-1.387-1.672 0-3.683 1.192-3.683 1.192v-.88h-3.06V21.11ZM53.487 11.305c0-3.23-1.418-4.676-4.875-4.676-2.605 0-5.695.739-5.695.739l.113 2.18s3.43-.282 5.328-.282c1.387 0 2.067.48 2.067 2.04v1.019l-3.653.312c-3.035.254-4.675 1.274-4.675 4.278 0 2.949 1.414 4.507 4.222 4.507 2.293 0 4.563-1.05 4.563-1.05 1.047.824 2.039 1.05 3.765 1.05l.086-2.351c-.82-.113-1.191-.453-1.246-1.305Zm-3.062 3.203v3.77s-1.899.621-3.512.621c-1.191 0-1.73-.793-1.73-2.066 0-1.278.652-1.899 1.957-2.012ZM57.367 21.11h3.09v-9.89s2.207-.993 4.789-1.5V6.63c-2.41.453-4.82 2.011-4.82 2.011v-1.7h-3.06ZM75.216 9.575V6.942h-3.91v-4.11h-3.059v4.11h-1.816v2.633h1.816v6.574c0 4.082.992 5.273 4.191 5.273.993 0 2.891-.37 2.891-.37l-.14-2.466s-1.532.086-2.325.086c-1.473 0-1.558-.734-1.558-2.863V9.575Zm0 0" fill="#fff"></path><path d="M78.104 1.7v19.41h7.594c3.77 0 6.18-1.531 6.18-5.496 0-2.664-1.106-3.856-2.778-4.508 1.559-.848 2.293-2.012 2.293-4.363 0-3.598-2.066-5.043-5.922-5.043Zm7.367 10.937c1.532 0 3.176.594 3.176 2.805 0 2.324-1.164 2.95-3.117 2.95h-4.281v-5.755Zm-.168-8.218c1.926 0 2.891.824 2.891 2.69 0 1.9-.852 2.864-2.777 2.864h-4.168V4.42ZM95.244 21.11h3.09V1.047h-3.09ZM107.88 6.63c-4.73 0-6.316 2.718-6.316 7.312 0 4.703 1.473 7.48 6.317 7.48 4.875 0 6.32-2.777 6.32-7.48 0-4.594-1.586-7.313-6.32-7.313Zm0 12.183c-2.632 0-3.199-1.586-3.199-4.871 0-3.29.707-4.707 3.2-4.707 2.496 0 3.203 1.418 3.203 4.707 0 3.285-.567 4.871-3.203 4.871ZM123.096 27.684c3.796 0 6.546-1.305 6.546-4.648 0-3.258-1.386-4.192-5.867-4.223-2.746-.027-3.058-.195-3.058-1.105 0-.368.394-1.329.394-1.329.258.055.965.114 1.25.114 3.766 0 5.777-1.051 5.777-4.903 0-1.105-.394-1.843-.761-2.324l2.351.14V6.916l-4.394.113s-1.586-.371-2.89-.371c-3.259 0-5.669 1.36-5.669 4.933 0 2.547.992 3.625 2.043 4.25 0 0-1.02 1.614-1.02 2.266 0 .879.34 1.672.934 2.07-1.445 1.106-2.152 1.98-2.152 3.426 0 3.23 2.238 4.082 6.516 4.082Zm.425-6.207c2.297.031 3.032.2 3.032 1.73 0 1.387-1.133 1.954-3.43 1.954-2.578 0-3.512-.535-3.512-1.84 0-.88.34-1.36 1.133-2.012 0 0 1.898.168 2.777.168Zm-1.078-7.367c-1.812 0-2.605-.793-2.605-2.52 0-1.703.793-2.523 2.605-2.523 1.899 0 2.637.82 2.637 2.523 0 1.727-.738 2.52-2.637 2.52ZM137.97 27.684c3.796 0 6.546-1.305 6.546-4.648 0-3.258-1.386-4.192-5.867-4.223-2.746-.027-3.058-.195-3.058-1.105 0-.368.394-1.329.394-1.329.258.055.965.114 1.25.114 3.766 0 5.778-1.051 5.778-4.903 0-1.105-.395-1.843-.762-2.324l2.351.14V6.916l-4.394.113s-1.586-.371-2.89-.371c-3.259 0-5.669 1.36-5.669 4.933 0 2.547.992 3.625 2.043 4.25 0 0-1.02 1.614-1.02 2.266 0 .879.34 1.672.934 2.07-1.445 1.106-2.152 1.98-2.152 3.426 0 3.23 2.238 4.082 6.516 4.082Zm.425-6.207c2.297.031 3.032.2 3.032 1.73 0 1.387-1.133 1.954-3.43 1.954-2.578 0-3.512-.535-3.512-1.84 0-.88.34-1.36 1.133-2.012 0 0 1.898.168 2.777.168Zm-1.078-7.367c-1.812 0-2.605-.793-2.605-2.52 0-1.703.793-2.523 2.605-2.523 1.899 0 2.637.82 2.637 2.523 0 1.727-.738 2.52-2.637 2.52ZM152.676 18.731c-2.352 0-3.203-1.137-3.23-3.402h8.784l.196-2.211c0-4.418-1.98-6.489-5.95-6.489-3.91 0-6.148 2.352-6.148 7.54 0 4.984 1.64 7.253 5.895 7.253 2.492 0 5.722-.652 5.722-.652l-.058-2.297s-2.973.258-5.211.258Zm-3.262-5.781c.031-2.723.965-3.77 3.063-3.77 2.066 0 2.917.934 2.917 3.77Zm0 0" fill="#47a7d7"></path><g clip-path="url(#a)"><path d="M161.4 21.11h3.09v-9.89s2.207-.993 4.79-1.5V6.63c-2.411.453-4.821 2.011-4.821 2.011v-1.7H161.4Zm0 0" fill="#47a7d7"></path></g></svg> 